<svg id="Layer_1" enable-background="new 0 0 512 512" height="512" viewBox="0 0 512 512" width="512" xmlns="http://www.w3.org/2000/svg"><g id="XMLID_2692_"><g id="XMLID_861_"><g id="XMLID_878_"><g id="XMLID_879_"><g id="XMLID_880_"><g id="XMLID_881_"><g id="XMLID_882_"><g id="XMLID_883_"><g id="XMLID_884_"><g id="XMLID_885_"><g id="XMLID_886_"><g id="XMLID_887_"><g id="XMLID_888_"><g id="XMLID_889_"><g id="XMLID_890_"><circle id="XMLID_891_" cx="256" cy="256" fill="#254b70" r="256"/></g></g></g></g></g></g></g></g></g></g></g></g></g></g><path id="XMLID_3317_" d="m512 256c0-4.566-.125-9.103-.361-13.61l-186.14-186.14-181.644 376.519 76.79 76.79c11.559 1.596 23.357 2.441 35.355 2.441 141.385 0 256-114.615 256-256z" fill="#173751"/><g id="XMLID_864_"><path id="XMLID_1469_" d="m280.176 164.828 45.323-108.578c-45.806-9.886-93.194-9.886-139 0l45.324 108.578c-61.28 4.089-109.723 55.083-109.723 117.399v105.104c0 32.229 26.127 58.356 58.356 58.356h151.085c32.229 0 58.356-26.127 58.356-58.356v-105.104c.001-62.316-48.441-113.31-109.721-117.399z" fill="#00e0c1"/><path id="XMLID_1468_" d="m389.899 282.23v105.103c0 32.23-26.13 58.35-58.36 58.35h-75.54v-396.853c23.3 0 46.6 2.47 69.5 7.42l-33.9 81.23-11.42 27.35c4.94.33 9.8.97 14.56 1.89 54.22 10.5 95.16 58.22 95.16 115.51z" fill="#00af95"/><g id="XMLID_1466_"><path id="XMLID_1467_" d="m217.261 137.485h77.477v30h-77.477z" fill="#ff6d3b"/></g><g id="XMLID_1464_"><path id="XMLID_1465_" d="m255.999 137.48h38.74v30h-38.74z" fill="#d8462a"/></g><g id="XMLID_593_"><g id="XMLID_594_"><g id="XMLID_595_"><g id="XMLID_632_"><g id="XMLID_711_"><g id="XMLID_758_"><g id="XMLID_772_"><g id="XMLID_797_"><g id="XMLID_1457_"><g id="XMLID_1458_"><g id="XMLID_1459_"><g id="XMLID_1460_"><g id="XMLID_1461_"><g id="XMLID_1462_"><circle id="XMLID_1463_" cx="255.999" cy="309.548" fill="#fff" r="102.046"/></g></g></g></g></g></g></g></g></g></g></g></g></g></g><g id="XMLID_713_"><g id="XMLID_714_"><g id="XMLID_715_"><g id="XMLID_716_"><g id="XMLID_717_"><g id="XMLID_746_"><g id="XMLID_747_"><g id="XMLID_748_"><g id="XMLID_749_"><g id="XMLID_750_"><g id="XMLID_751_"><g id="XMLID_752_"><g id="XMLID_754_"><g id="XMLID_755_"><path id="XMLID_775_" d="m358.04 309.552c0 56.353-45.688 102.04-102.04 102.04v-204.092c56.352 0 102.04 45.688 102.04 102.052z" fill="#f4f1f1"/></g></g></g></g></g></g></g></g></g></g></g></g></g></g><path id="XMLID_586_" d="m268.485 301.919c-1.84-.651-3.72-1.33-5.598-2.036v-31.006c4.362 1.221 6.971 3.39 7.276 3.653l5.466 5.042 10.17-11.026-5.513-5.085c-.39-.359-6.837-6.161-17.399-7.92v-13.542h-15v14.097c-.863.202-1.735.423-2.624.691-10.017 3.018-17.501 11.583-19.53 22.354-1.855 9.842 1.313 19.344 8.267 24.798 3.546 2.781 7.931 5.33 13.888 8.007v39.839c-4.997-.454-8.344-1.799-13.905-5.436l-6.276-4.106-8.212 12.553 6.276 4.106c8.633 5.647 14.598 7.428 22.117 7.922v14.27h15v-14.897c15.316-3.252 24.27-15.988 26.272-27.898 2.609-15.523-5.506-29.018-20.675-34.38zm-25.228-11.783c-2.492-1.955-3.585-5.965-2.783-10.217.69-3.665 2.998-8.021 7.414-10.107v23.365c-1.724-.98-3.294-1.992-4.631-3.041zm31.11 43.675c-.975 5.797-4.872 11.944-11.479 14.696v-32.66c.202.072.394.142.599.214 12.143 4.293 11.398 14.672 10.88 17.75z" fill="#5d5d5d"/><path id="XMLID_596_" d="m268.489 301.921c-1.84-.65-3.72-1.33-5.6-2.04v-31c4.36 1.22 6.97 3.39 7.27 3.65l5.47 5.04 10.17-11.02-5.51-5.09c-.39-.36-6.84-6.16-17.4-7.92v-13.54h-6.89v139.09h6.89v-14.89c15.31-3.26 24.27-15.99 26.27-27.9 2.61-15.52-5.51-29.02-20.67-34.38zm5.88 31.89c-.98 5.8-4.87 11.95-11.48 14.7v-32.66c.2.07.39.14.6.21 12.14 4.29 11.4 14.67 10.88 17.75z" fill="#3a383f"/></g></g></svg>